<?xml version="1.0" standalone="no"?>
<!DOCTYPE svg PUBLIC "-//W3C//DTD SVG 20010904//EN"
 "http://www.w3.org/TR/2001/REC-SVG-20010904/DTD/svg10.dtd">
<svg version="1.0" xmlns="http://www.w3.org/2000/svg"
 width="420.000000pt" height="420.000000pt" viewBox="0 0 420.000000 420.000000"
 preserveAspectRatio="xMidYMid meet">
<metadata>
Created by potrace 1.11, written by Peter Selinger 2001-2013
</metadata>
<g transform="translate(0.000000,420.000000) scale(0.100000,-0.100000)"
fill="#000000" stroke="none">
<path d="M500 3857 c-48 -15 -113 -83 -128 -133 -9 -32 -12 -393 -12 -1587 0
-1418 1 -1549 17 -1597 21 -67 76 -115 147 -130 36 -8 511 -10 1636 -8 l1585
3 41 27 c50 32 78 69 93 123 16 59 16 3098 -1 3163 -15 62 -78 125 -140 140
-65 17 -3187 15 -3238 -1z"/>
</g>
</svg>
